# xmcd
#
# Track frame offsets: 
#        150
#        15462
#        34670
#        51640
#        67102
#        85403
#        109924
#        124958
#        139368
#        158697
#        176969
#        193971
#        208642
#        226843
#        244453
#        259029
#        276390
#        301706
#
# Disc length: 4257 seconds
#
# Revision: 0
# Processed by: cddbd v1.5.2PL0 Copyright (c) Steve Scherf et al.
# Submitted via: ExactAudioCopy v1.3
#
DISCID=14109f12
DTITLE=Various Artist - Latest and Greatest Hip-Hop
DYEAR=2016
DGENRE=Hip-Hop
TTITLE0=Krept and Konan - Don't waste my time
TTITLE1=Rich Homie Quan - Type of way
TTITLE2=will.i.am - Hip Hop Is Dead
TTITLE3=2 Chainz - I'm Different
TTITLE4=Rick Ross and Meek Mill - So sophisticated
TTITLE5=Young Jeezy - Leave you alone
TTITLE6=Akon feat. Lil Wayne - I'm so paid
TTITLE7=Swizz Beatz - Money In The Bank
TTITLE8=Ja Rule, Fat Joe and Jadakiss - New York
TTITLE9=Nelly - Flap Your Wings
TTITLE10=Freeway and Jay-Z - What We Do
TTITLE11=Wale - Chillin
TTITLE12=De La Soul - Much more
TTITLE13=The Nextmen - The lion's den
TTITLE14=J Dilla feat. Pharoahe Monch - Love
TTITLE15=De La Soul feat. Common - Days of our lives
TTITLE16=J Dilla feat. Common and D'Angelo - So far to go
TTITLE17=Gucci Mane feat. Usher - Spotlight
EXTD=
EXTT0=
EXTT1=
EXTT2=
EXTT3=
EXTT4=
EXTT5=
EXTT6=
EXTT7=
EXTT8=
EXTT9=
EXTT10=
EXTT11=
EXTT12=
EXTT13=
EXTT14=
EXTT15=
EXTT16=
EXTT17=
PLAYORDER=
